<svg xmlns="http://www.w3.org/2000/svg" width="256" height="256" viewBox="0 0 67.733 67.733"><g transform="translate(0 -229.267)"><circle cx="33.867" cy="263.133" r="31.75" fill="#e86c74"/><path d="M-142.875 186.933l31.75 67.734h-48.683v-67.734z" opacity=".333" fill="#fff"/><rect width="42.333" height="38.1" x="12.7" y="244.083" ry="2.117" fill="#e7e7e7"/><path d="M14.817 244.083A2.112 2.112 0 0 0 12.7 246.2v2.117h42.333V246.2a2.112 2.112 0 0 0-2.116-2.117z" fill="#bfbfbf"/><path style="line-height:normal;font-variant-ligatures:normal;font-variant-position:normal;font-variant-caps:normal;font-variant-numeric:normal;font-variant-alternates:normal;font-feature-settings:normal;text-indent:0;text-align:start;text-decoration-line:none;text-decoration-style:solid;text-decoration-color:#000;text-transform:none;text-orientation:mixed;shape-padding:0;isolation:auto;mix-blend-mode:normal" d="M51.73 245.136a.396.396 0 0 0-.275.68l.511.51-.511.512a.396.396 0 1 0 .559.56l.512-.512.512.512a.396.396 0 1 0 .56-.56l-.512-.511.512-.512a.396.396 0 0 0-.288-.679.396.396 0 0 0-.272.12l-.512.512-.512-.512a.396.396 0 0 0-.283-.12z" color="#000" font-weight="400" font-family="sans-serif" overflow="visible" fill="#7f7f7f" white-space="normal"/><path fill="#fff" d="M13.758 248.317h40.217v31.75H13.758z"/></g><g transform="translate(-25.4 -14.817)"><rect ry="2.117" y="40.217" x="44.45" height="16.933" width="29.633" fill="#6be7c6"/><path d="M44.45 55.033c0 1.173.944 2.117 2.117 2.117h11.112v3.175h-3.175a.528.528 0 1 0 0 1.058h9.525a.528.528 0 1 0 0-1.058h-3.175V57.15h11.113a2.112 2.112 0 0 0 2.116-2.117z" fill="#013f95"/><path d="M46.038 41.804h26.458v11.642H46.037z" fill="#fff"/><ellipse ry=".794" rx=".794" cy="56.356" cx="59.267" fill="#fff"/></g><path d="M13.758 19.05V50.8H38.1L25.4 19.05z" opacity=".333" fill="#fff"/></svg>