<svg xmlns="http://www.w3.org/2000/svg" width="256" height="256" viewBox="0 0 67.733 67.733"><g transform="translate(0 -229.267)"><circle cx="33.867" cy="263.133" r="31.75" fill="#6be7c6"/><path d="M-142.875 186.933l31.75 67.734h-48.683v-67.734z" opacity=".333" fill="#fff"/><rect width="42.333" height="38.1" x="12.7" y="244.083" ry="2.117" fill="#e7e7e7"/><path d="M14.817 244.083A2.112 2.112 0 0 0 12.7 246.2v2.117h42.333V246.2a2.112 2.112 0 0 0-2.116-2.117z" fill="#bfbfbf"/><path style="line-height:normal;font-variant-ligatures:normal;font-variant-position:normal;font-variant-caps:normal;font-variant-numeric:normal;font-variant-alternates:normal;font-feature-settings:normal;text-indent:0;text-align:start;text-decoration-line:none;text-decoration-style:solid;text-decoration-color:#000;text-transform:none;text-orientation:mixed;shape-padding:0;isolation:auto;mix-blend-mode:normal" d="M51.73 245.136a.396.396 0 0 0-.275.68l.511.51-.511.512a.396.396 0 1 0 .559.56l.512-.512.512.512a.396.396 0 1 0 .56-.56l-.512-.511.512-.512a.396.396 0 0 0-.288-.679.396.396 0 0 0-.272.12l-.512.512-.512-.512a.396.396 0 0 0-.283-.12z" color="#000" font-weight="400" font-family="sans-serif" overflow="visible" fill="#7f7f7f" white-space="normal"/><path fill="#fff" d="M13.758 248.317h40.217v31.75H13.758z"/></g><path d="M31.22 33.337l2.117-3.175 20.638 11.113V50.8H42.333z" fill="#ffd65a"/><g transform="rotate(30 32.874 30.163)"><path fill="#013f95" d="M16.933 29.633h1.587v4.233h-1.587z"/><path d="M19.05 29.633h10.583l2.117-1.587v7.408l-2.117-1.587H19.05z" fill="#3079d8"/><path fill="#013f95" d="M32.279 28.046h1.587v7.408h-1.587z"/><ellipse ry="1.058" rx="1.058" cy="31.75" cx="28.575" fill="#fff"/></g><path d="M13.758 19.05V50.8H38.1L25.4 19.05z" opacity=".333" fill="#fff"/></svg>