<svg xmlns="http://www.w3.org/2000/svg" width="256" height="256" viewBox="0 0 67.733 67.733"><g transform="translate(0 -229.267)"><circle cx="33.867" cy="263.133" r="31.75" fill="#ffbf51"/><path d="M-142.875 186.933l31.75 67.734h-48.683v-67.734z" opacity=".333" fill="#fff"/><rect width="42.333" height="38.1" x="12.7" y="244.083" ry="2.117" fill="#e7e7e7"/><path d="M14.817 244.083A2.112 2.112 0 0 0 12.7 246.2v2.117h42.333V246.2a2.112 2.112 0 0 0-2.116-2.117z" fill="#bfbfbf"/><path style="line-height:normal;font-variant-ligatures:normal;font-variant-position:normal;font-variant-caps:normal;font-variant-numeric:normal;font-variant-alternates:normal;font-feature-settings:normal;text-indent:0;text-align:start;text-decoration-line:none;text-decoration-style:solid;text-decoration-color:#000;text-transform:none;text-orientation:mixed;shape-padding:0;isolation:auto;mix-blend-mode:normal" d="M51.73 245.136a.396.396 0 0 0-.275.68l.511.51-.511.512a.396.396 0 1 0 .559.56l.512-.512.512.512a.396.396 0 1 0 .56-.56l-.512-.511.512-.512a.396.396 0 0 0-.288-.679.396.396 0 0 0-.272.12l-.512.512-.512-.512a.396.396 0 0 0-.283-.12z" color="#000" font-weight="400" font-family="sans-serif" overflow="visible" fill="#7f7f7f" white-space="normal"/><path fill="#fff" d="M13.758 248.317h40.217v31.75H13.758z"/></g><path d="M33.867 32.808a14.817 17.992 0 0 0-8.977 3.74 8.942 8.942 0 0 0 1.267 4.071 3.704 6.35 0 0 1 2.947-2.519 3.704 6.35 0 0 1 3.704 6.35 3.704 6.35 0 0 1-.015.463c.353.042.71.066 1.074.066.363 0 .722-.024 1.074-.066a3.704 6.35 0 0 1-.016-.463 3.704 6.35 0 0 1 3.704-6.35 3.704 6.35 0 0 1 2.947 2.52 8.943 8.943 0 0 0 1.267-4.072 14.817 17.992 0 0 0-8.976-3.74z" fill="#c53784"/><path d="M33.867 25.4c-5.845 0-10.584 4.738-10.584 10.583s4.739 10.584 10.584 10.584S44.45 41.828 44.45 35.983 39.712 25.4 33.867 25.4zm0 2.646c4.091 0 7.937 3.846 7.937 7.937 0 4.092-3.846 7.938-7.937 7.938-4.092 0-7.938-3.846-7.938-7.938 0-4.091 3.846-7.937 7.938-7.937z" fill="#c53784"/><path d="M33.867 26.988a8.996 8.996 0 0 0-8.996 8.995 8.996 8.996 0 0 0 8.996 8.996 8.996 8.996 0 0 0 8.995-8.996 8.996 8.996 0 0 0-8.995-8.995zm0 1.587a7.408 7.408 0 0 1 7.408 7.408 7.408 7.408 0 0 1-7.408 7.409 7.408 7.408 0 0 1-7.409-7.409 7.408 7.408 0 0 1 7.409-7.408z" fill="#e86c74"/><ellipse cx="33.867" cy="36.513" rx="2.381" ry="2.381" fill="#fff"/><ellipse cx="33.867" cy="36.513" rx=".794" ry=".794" fill="#e86c74"/><path d="M13.758 19.05V50.8H38.1L25.4 19.05z" opacity=".333" fill="#fff"/></svg>