<svg xmlns="http://www.w3.org/2000/svg" width="256" height="256" viewBox="0 0 67.733 67.733"><g transform="translate(0 -229.267)"><circle cx="33.867" cy="263.133" r="31.75" fill="#c53784" stroke-width=".265"/><path d="M-142.875 186.933l31.75 67.734h-48.683v-67.734z" opacity=".333" fill="#fff" stroke-width=".265"/><rect width="42.333" height="38.1" x="12.7" y="244.083" ry="2.117" fill="#e7e7e7" stroke-width=".265"/><path d="M14.817 244.083A2.112 2.112 0 0 0 12.7 246.2v2.117h42.333V246.2a2.112 2.112 0 0 0-2.116-2.117z" fill="#bfbfbf" stroke-width=".265"/><path style="line-height:normal;font-variant-ligatures:normal;font-variant-position:normal;font-variant-caps:normal;font-variant-numeric:normal;font-variant-alternates:normal;font-feature-settings:normal;text-indent:0;text-align:start;text-decoration-line:none;text-decoration-style:solid;text-decoration-color:#000;text-transform:none;text-orientation:mixed;shape-padding:0;isolation:auto;mix-blend-mode:normal" d="M51.73 245.136a.396.396 0 0 0-.275.68l.511.51-.511.512a.396.396 0 1 0 .559.56l.512-.512.512.512a.396.396 0 1 0 .56-.56l-.512-.511.512-.512a.396.396 0 0 0-.288-.679.396.396 0 0 0-.272.12l-.512.512-.512-.512a.396.396 0 0 0-.283-.12z" color="#000" font-weight="400" font-family="sans-serif" overflow="visible" fill="#7f7f7f" stroke-width=".791" stroke-linecap="round" white-space="normal"/><path fill="#fff" stroke-width="1.058" stroke-linecap="round" d="M13.758 248.317h40.217v31.75H13.758z"/></g><g stroke-width=".265"><path d="M23.283 42.333V30.692l10.584 4.233v12.7z" fill="#9f9f9f"/><path d="M44.45 42.333V30.692l-10.583 4.233v12.7z" fill="#d3d3d3"/><path d="M33.867 26.458l-10.584 4.234 10.584 4.233 10.583-4.233z" fill="#ececec" stroke="#ececec"/></g><path d="M13.758 19.05V50.8h28.575L25.4 19.05z" opacity=".333" fill="#fff" stroke-width="4" stroke-linecap="round"/></svg>